<?xml version="1.0" standalone="no"?>
<!DOCTYPE svg PUBLIC "-//W3C//DTD SVG 20010904//EN"
 "http://www.w3.org/TR/2001/REC-SVG-20010904/DTD/svg10.dtd">
<svg version="1.0" xmlns="http://www.w3.org/2000/svg"
 width="461.000000pt" height="462.000000pt" viewBox="0 0 461.000000 462.000000"
 preserveAspectRatio="xMidYMid meet">

<g transform="translate(0.000000,462.000000) scale(0.100000,-0.100000)"
fill="#000000" stroke="none">
<path d="M2235 3608 c-3 -7 -6 -220 -7 -473 l-3 -460 -40 -8 c-391 -80 -683
-304 -842 -647 -107 -232 -124 -557 -41 -810 70 -217 240 -444 425 -568 200
-135 409 -196 673 -195 404 2 797 168 1087 461 301 303 463 696 463 1122 0
609 -337 1150 -887 1425 -103 51 -261 108 -280 101 -19 -8 -19 -259 0 -275 8
-6 33 -18 58 -26 174 -62 384 -209 514 -362 307 -360 401 -820 260 -1273 -64
-206 -227 -448 -393 -586 -199 -165 -408 -262 -650 -304 -178 -31 -316 -22
-472 30 -368 123 -600 465 -577 848 8 129 29 207 88 327 105 213 279 363 507
434 119 37 106 102 112 -569 l5 -585 130 0 130 0 0 1200 0 1200 -128 3 c-96 2
-129 -1 -132 -10z"/>
</g>
</svg>
