<?xml version="1.0" standalone="no"?>
<!DOCTYPE svg PUBLIC "-//W3C//DTD SVG 20010904//EN"
 "http://www.w3.org/TR/2001/REC-SVG-20010904/DTD/svg10.dtd">
<svg version="1.0" xmlns="http://www.w3.org/2000/svg"
 width="597.000000pt" height="282.000000pt" viewBox="0 0 597.000000 282.000000"
 preserveAspectRatio="xMidYMid meet">

<g transform="translate(0.000000,282.000000) scale(0.100000,-0.100000)"
fill="#f5eee3" stroke="none">
<path d="M2510 1932 c0 -109 3 -131 16 -136 9 -3 123 -6 254 -6 225 0 242 -1
309 -24 97 -33 153 -68 226 -141 105 -104 154 -232 155 -399 1 -264 -148 -470
-394 -545 -61 -19 -93 -21 -317 -21 l-250 0 3 -132 3 -133 255 1 c162 0 280 5
325 14 184 34 408 166 514 303 115 149 182 374 167 561 -29 378 -262 648 -653
757 -68 19 -111 22 -345 26 l-268 5 0 -130z"/>
<path d="M4338 2053 c-16 -4 -18 -19 -18 -128 0 -103 3 -124 16 -129 9 -3 167
-6 351 -6 356 0 380 -3 448 -49 59 -40 80 -83 80 -166 0 -85 -25 -132 -89
-170 -81 -48 -144 -55 -488 -55 l-318 0 0 -120 0 -120 338 0 c185 0 370 -5
411 -10 85 -11 151 -41 192 -87 76 -88 58 -243 -35 -298 -101 -59 -100 -59
-516 -65 l-385 -5 0 -125 0 -125 305 -3 c473 -5 618 14 767 99 68 39 148 129
175 199 31 78 31 252 -1 323 -39 89 -119 164 -226 213 -30 14 -55 30 -55 35 0
5 17 17 39 28 21 11 56 42 78 68 94 112 123 238 87 376 -48 185 -179 279 -441
317 -69 10 -679 13 -715 3z"/>
<!-- <path d="M1432 1759 c-42 -21 -149 -128 -180 -181 l-15 -27 -71 59 c-86 70
-142 99 -204 107 -39 4 -50 2 -66 -16 -40 -44 -28 -163 31 -293 19 -44 23 -62
15 -70 -9 -9 -18 -8 -36 1 -35 19 -76 6 -89 -28 -6 -17 -30 -40 -61 -59 -72
-43 -100 -76 -100 -116 0 -41 15 -61 65 -87 37 -19 185 -49 241 -49 23 0 28
-4 24 -17 -29 -92 -34 -234 -10 -293 18 -45 43 -56 99 -46 42 8 136 92 186
166 19 27 38 48 44 46 5 -1 13 -17 16 -36 8 -37 23 -50 61 -50 15 0 62 -18
104 -40 85 -45 123 -47 158 -7 15 19 18 34 14 97 -4 66 -26 138 -74 246 -3 6
27 22 73 38 99 35 152 66 192 111 83 95 1 169 -216 197 -46 6 -83 14 -83 18 0
4 11 15 25 24 34 22 42 61 19 87 -13 14 -18 38 -19 92 -2 99 -31 146 -90 147
-5 0 -29 -10 -53 -21z m88 -9 c20 -20 24 -47 21 -130 -2 -34 -8 -49 -27 -63
-26 -20 -31 -56 -12 -86 23 -38 4 -51 -75 -51 -71 0 -74 1 -108 38 -64 67 -64
67 -38 104 58 84 128 162 164 184 49 29 50 29 75 4z m-491 -77 c24 -14 74 -55
112 -92 l68 -66 -37 -64 c-36 -62 -39 -65 -92 -77 -87 -21 -87 -21 -120 53
-108 237 -81 333 69 246z m249 -264 c-33 -10 -90 -10 -86 -1 2 4 12 24 23 46
l20 38 33 -38 33 -39 -23 -6z m212 -35 c0 -19 -24 -84 -31 -84 -7 0 -47 48
-63 78 -5 9 6 12 43 12 28 0 51 -3 51 -6z m276 -18 c58 -18 104 -50 104 -73 0
-19 -53 -69 -99 -93 -20 -10 -75 -32 -123 -49 l-87 -30 -37 62 -36 62 23 74
23 74 91 -6 c49 -3 113 -13 141 -21z m-381 -47 c26 -34 49 -67 51 -74 3 -7
-10 -47 -29 -88 -38 -83 -25 -75 -158 -93 l-45 -6 -53 73 -53 72 27 67 c37 91
34 88 95 99 112 18 114 17 165 -50z m-289 -4 c-29 -70 -31 -70 -54 -30 -12 20
-22 38 -22 40 0 5 58 23 78 24 9 1 9 -7 -2 -34z m-85 -57 l36 -62 -25 -74 -25
-75 -91 7 c-121 9 -217 42 -230 79 -8 23 -6 31 20 58 39 42 123 84 137 70 26
-26 97 0 97 35 0 12 14 22 35 23 6 1 27 -27 46 -61z m486 -107 l22 -39 -42
-10 c-23 -6 -43 -9 -45 -7 -5 5 31 95 38 95 3 0 15 -18 27 -39z m-387 -45 c16
-25 30 -47 30 -50 0 -3 -22 -6 -49 -6 l-49 0 16 50 c9 28 17 50 18 50 2 0 17
-20 34 -44z m462 -96 c36 -72 68 -174 68 -214 0 -51 -20 -70 -65 -63 -51 8
-149 73 -141 93 6 16 -10 54 -28 67 -6 4 -20 5 -31 3 -11 -3 -27 -1 -35 4 -13
8 -9 20 22 77 35 64 39 68 85 79 82 20 95 16 125 -46z m-232 13 c0 -5 -9 -23
-21 -42 l-20 -34 -30 29 c-34 32 -36 41 -11 47 29 8 82 7 82 0z m-112 -62 c23
-28 42 -54 42 -59 0 -4 -26 -44 -58 -88 -130 -177 -222 -193 -222 -37 0 53 20
180 35 221 3 8 29 12 82 12 l78 0 43 -49z"/> -->
<!-- <path d="M1219 1295 c-91 -51 -37 -200 66 -181 107 20 103 176 -6 191 -20 3
-45 -1 -60 -10z"/> -->
</g>
</svg>
