<?xml version="1.0" encoding="UTF-8"?>
<svg version="1.1" xmlns="http://www.w3.org/2000/svg" width="32" height="32">
<path d="M0 0 C2.64 0 5.28 0 8 0 C8.92470553 4.71599818 9.22923777 7.67265609 7 12 C8.65 13.65 10.3 15.3 12 17 C13.5778125 16.4740625 13.5778125 16.4740625 15.1875 15.9375 C18.7954681 15.05029473 20.52632489 14.94737118 24 16 C24 18.64 24 21.28 24 24 C17.64321223 24.45405627 13.26714508 23.72182566 8 20 C3.81423071 16.09204725 0.20107548 11.83479661 -0.109375 5.9140625 C-0.12321109 3.94241978 -0.06679862 1.97055941 0 0 Z " fill=" #f5eee3" transform="translate(4,4)"/>
</svg>
